<?xml version="1.0" encoding="UTF-8" standalone="no"?>
<!-- Created with Inkscape (http://www.inkscape.org/) -->

<svg
   version="1.1"
   id="svg1"
   width="1293.3333"
   height="1293.3333"
   viewBox="0 0 1293.3333 1293.3333"
   sodipodi:docname="heterodox-logo.svg"
   inkscape:version="1.4.3 (0d15f75, 2025-12-25)"
   xmlns:inkscape="http://www.inkscape.org/namespaces/inkscape"
   xmlns:sodipodi="http://sodipodi.sourceforge.net/DTD/sodipodi-0.dtd"
   xmlns="http://www.w3.org/2000/svg"
   xmlns:svg="http://www.w3.org/2000/svg">
  <defs
     id="defs1">
    <rect
       x="8.313861"
       y="8.313861"
       width="1278.2561"
       height="1278.2561"
       id="rect3037" />
    <rect
       x="127.82561"
       y="445.8308"
       width="179.39024"
       height="244.87256"
       id="rect3036" />
    <rect
       x="276.30301"
       y="238.09089"
       width="690.75753"
       height="555.54542"
       id="rect3033" />
    <inkscape:path-effect
       effect="lattice2"
       gridpoint0="-120.04965,-12.182369"
       gridpoint1="1293.6556,8.6022839"
       gridpoint2="19.207526,1345.0205"
       gridpoint3="1281.1848,1268.1172"
       gridpoint4="352.3688,27.308471"
       gridpoint5="968.80819,0.28842287"
       gridpoint6="329.50569,1290.9804"
       gridpoint7="968.80819,1293.0588"
       gridpoint8x9="646.03924,0.28842287"
       gridpoint10x11="646.03924,1293.0588"
       gridpoint12="8.8151992,327.63795"
       gridpoint13="1291.5771,323.48102"
       gridpoint14="25.442921,988.57241"
       gridpoint15="1277.0279,974.02315"
       gridpoint16="323.27029,323.48102"
       gridpoint17="968.80819,323.48102"
       gridpoint18="323.27029,969.86622"
       gridpoint19="968.80819,969.86622"
       gridpoint20x21="646.03924,323.48102"
       gridpoint22x23="646.03924,969.86622"
       gridpoint24x26="-1.577127,642.51669"
       gridpoint25x27="1279.1064,646.67362"
       gridpoint28x30="323.27029,644.59516"
       gridpoint29x31="968.80819,646.67362"
       gridpoint32x33x34x35="652.27464,652.90902"
       id="path-effect1710"
       is_visible="true"
       lpeversion="1"
       horizontal_mirror="false"
       vertical_mirror="false"
       perimetral="false"
       live_update="true" />
    <inkscape:path-effect
       effect="perspective-envelope"
       up_left_point="0.50133821,0.28842287"
       up_right_point="1291.5771,0.28842287"
       down_left_point="0.50133821,1293.0588"
       down_right_point="1291.5771,1293.0588"
       id="path-effect635"
       is_visible="true"
       lpeversion="1"
       deform_type="perspective"
       horizontal_mirror="false"
       vertical_mirror="false"
       overflow_perspective="false" />
  </defs>
  <sodipodi:namedview
     id="namedview1"
     pagecolor="#ffffff"
     bordercolor="#000000"
     borderopacity="0.25"
     inkscape:showpageshadow="2"
     inkscape:pageopacity="0.0"
     inkscape:pagecheckerboard="0"
     inkscape:deskcolor="#d1d1d1"
     inkscape:zoom="0.48112423"
     inkscape:cx="577.81334"
     inkscape:cy="755.52212"
     inkscape:window-width="2240"
     inkscape:window-height="1232"
     inkscape:window-x="0"
     inkscape:window-y="28"
     inkscape:window-maximized="0"
     inkscape:current-layer="layer4" />
  <g
     inkscape:groupmode="layer"
     id="layer4"
     inkscape:label="Lettering 1"
     style="fill:#000000;fill-opacity:1;stroke:none;stroke-width:1;stroke-dasharray:none;stroke-opacity:1;fill-rule:nonzero">
    <path
       d="M 148.33551,78.705077 V 159.88073 H 274.32442 V 78.705077 h -6.16457 c -13.87037,0 -24.52995,-3.294093 -31.97882,-9.882252 -7.19204,-6.588168 -10.78808,-16.235127 -10.78808,-28.940882 0,-13.882213 3.72455,-23.882109 11.17334,-29.9996919 7.70577,-6.1175868 20.29179,-9.17637838 37.75813,-9.17637838 h 99.40407 c 17.46636,0 29.79557,3.05877968 36.98756,9.17637838 7.44887,6.1175829 11.17335,16.1174789 11.17335,29.9996919 0,12.705755 -3.5959,22.352714 -10.78807,28.940882 -6.93517,6.588167 -17.20946,9.882252 -30.82295,9.882252 h -6.54989 V 341.99651 h 6.54989 c 13.87033,0 24.4015,3.29397 31.59356,9.88224 7.19199,6.35287 10.788,15.76456 10.788,28.23504 0,13.88217 -3.72454,23.88205 -11.17329,29.99966 -7.44888,6.11761 -20.03492,9.17638 -37.75816,9.17638 h -99.40407 c -17.72323,0 -30.30924,-2.94119 -37.75813,-8.82345 -7.44887,-6.1176 -11.17334,-16.2351 -11.17334,-30.35259 0,-12.47048 3.5959,-21.88217 10.78808,-28.23504 7.44887,-6.58815 18.10845,-9.88224 31.97882,-9.88224 h 6.16457 V 237.87992 H 148.33551 v 104.11659 h 6.16462 c 13.87033,0 24.40151,3.29397 31.59356,9.88224 7.44887,6.35287 11.17329,15.76456 11.17329,28.23504 0,13.88217 -3.85277,23.88205 -11.55857,29.99966 -7.44888,6.11761 -19.90654,9.17638 -37.3729,9.17638 H 48.931451 c -17.723196,0 -30.309237,-2.94119 -37.758121,-8.82345 C 3.7244444,404.34878 0,394.23128 0,380.11379 c 0,-12.47048 3.5960216,-21.88217 10.788039,-28.23504 7.192026,-6.58815 17.723205,-9.88224 31.593543,-9.88224 h 6.549869 V 78.705077 h -6.549869 c -13.613473,0 -24.016228,-3.294093 -31.208252,-9.882252 C 4.2381616,62.234657 0.77057608,52.587698 0.77057608,39.881943 0.77057608,25.99973 4.3665981,15.999834 11.558615,9.8822511 19.007499,3.7646643 31.465109,0.70587272 48.931451,0.70587272 h 99.404059 c 17.20952,0 29.66715,3.05877968 37.3729,9.17637838 7.70571,6.1175829 11.55857,16.1174789 11.55857,29.9996919 0,12.705755 -3.72455,22.352714 -11.17329,28.940882 -7.19205,6.588167 -17.72323,9.882252 -31.59356,9.882252 z M 754.16166,75.175712 H 575.00317 V 165.5277 h 67.81054 v -4.23522 c 0,-13.4116 3.21077,-23.41153 9.63217,-29.99971 6.42146,-6.58815 16.18208,-9.88223 29.28181,-9.88223 11.55861,0 20.93396,3.05865 28.12597,9.17637 7.44888,5.88229 11.17333,13.4116 11.17333,22.58798 0,0.47063 0.12648,1.99996 0.3838,4.58819 0.25732,2.58844 0.38379,5.17651 0.38379,7.76462 v 73.05811 c 0,15.76455 -3.08213,27.05853 -9.24687,33.88201 -6.1646,6.82344 -16.18207,10.23516 -30.05241,10.23516 -13.09975,0 -22.98877,-3.17652 -29.6671,-9.52931 -6.67834,-6.35286 -10.01747,-15.76452 -10.01747,-28.23499 v -6.35287 H 575.0002 v 105.52831 h 179.15849 v -41.99955 c 0,-15.76453 3.21079,-27.05852 9.63219,-33.88202 6.67833,-6.82346 17.46635,-10.2352 32.3641,-10.2352 14.64094,0 25.04368,3.41183 31.2083,10.2352 6.42144,6.58818 9.63219,17.88217 9.63219,33.88202 v 85.41087 c 0,12.70578 -2.69703,21.1763 -8.09105,25.41152 -5.39401,4.23525 -16.05363,6.35287 -31.97883,6.35287 H 481.37543 c -16.95264,0 -29.15337,-3.05866 -36.60225,-9.17638 -7.19205,-6.11757 -10.78807,-16.11745 -10.78807,-29.99966 0,-12.47048 3.46766,-21.88217 10.40275,-28.23504 6.9352,-6.58815 17.08106,-9.88224 30.43768,-9.88224 h 6.54989 V 78.705077 h -6.54989 c -13.09974,0 -23.24565,-3.294093 -30.43768,-9.882252 -6.93517,-6.823462 -10.40275,-16.470423 -10.40275,-28.940882 0,-13.64692 3.72454,-23.529172 11.17333,-29.646755 7.4489,-6.3528756 19.52119,-9.52931528 36.21699,-9.52931528 h 315.55016 c 15.66837,0 26.19955,2.23526678 31.59356,6.70581598 5.65089,4.2352493 8.47632,12.8233983 8.47632,25.7644403 v 79.058021 c 0,15.99983 -3.21079,27.52909 -9.63219,34.58786 -6.42146,6.82346 -16.82425,10.2352 -31.2083,10.2352 -14.89775,0 -25.68577,-3.52927 -32.3641,-10.58811 -6.42145,-7.05878 -9.63219,-18.47043 -9.63219,-34.23495 z m 452.09674,2.823507 h -80.5251 V 341.29061 h 64.7281 c 17.2096,0 29.5388,3.05866 36.9877,9.17639 7.4489,6.11759 11.1734,15.99986 11.1734,29.64679 0,13.88221 -3.7246,23.88209 -11.1734,29.99966 -7.4489,6.11761 -19.7781,9.17642 -36.9877,9.17642 H 961.60095 c -16.95263,0 -29.1534,-3.05866 -36.60229,-9.17642 -7.44888,-6.11757 -11.17334,-16.11745 -11.17334,-29.99966 0,-13.88224 3.59589,-23.76446 10.78808,-29.64679 7.44887,-6.11757 19.77804,-9.17639 36.98755,-9.17639 h 64.72835 V 77.999199 h -80.52516 l -2.31192,71.646321 v 8.82345 c 0,11.29399 -3.46766,20.11744 -10.40273,26.47031 -6.67832,6.35288 -16.05363,9.52931 -28.12598,9.52931 -14.38403,0 -25.04366,-3.29397 -31.97883,-9.88223 -6.67832,-6.82345 -10.01747,-17.52925 -10.01747,-32.11733 v -2.82335 l 4.23832,-105.528324 c 0.77064,-20.941069 3.85276,-33.52923 9.24696,-37.7644807 C 882.10338,2.1176263 893.4051,0 910.35774,0 h 331.34696 c 16.9527,0 28.126,2.1176104 33.5199,6.3528753 5.651,4.2352507 8.9902,16.8233567 10.0175,37.7643207 l 3.8528,105.528324 v 2.82336 c 0,14.82335 -3.2107,25.52914 -9.6321,32.11732 -6.4215,6.58814 -16.8243,9.88222 -31.2082,9.88222 -13.8704,0 -23.8879,-3.17651 -30.0525,-9.5293 -5.9078,-6.58813 -9.1185,-18.35275 -9.6321,-35.29375 z M 321.71472,511.76583 H 142.55623 v 90.35203 h 67.81053 v -4.23526 c 0,-13.41164 3.21078,-23.41152 9.63219,-29.99968 6.42144,-6.58817 16.18208,-9.88226 29.2818,-9.88226 11.55862,0 20.93397,3.05865 28.12597,9.17638 7.44888,5.88228 11.17334,13.41164 11.17334,22.58801 0,0.47063 0.12649,1.99996 0.3838,4.58819 0.25732,2.58844 0.3838,5.17651 0.3838,7.76462 v 73.05807 c 0,15.76456 -3.08214,27.05854 -9.24686,33.882 -6.16462,6.82346 -16.1821,10.23521 -30.05241,10.23521 -13.09978,0 -22.98881,-3.17652 -29.66714,-9.52931 -6.67832,-6.35287 -10.01747,-15.76457 -10.01747,-28.23503 v -6.35287 h -67.8105 v 105.52834 h 179.15849 v -41.99955 c 0,-15.76456 3.21079,-27.05857 9.63218,-33.88201 6.67833,-6.82345 17.46635,-10.2352 32.36412,-10.2352 14.64092,0 25.04366,3.41183 31.20827,10.2352 6.42144,6.58814 9.63218,17.88218 9.63218,33.88201 v 85.41087 c 0,12.70576 -2.69701,21.17624 -8.09103,25.41149 -5.39401,4.23526 -16.05364,6.35291 -31.97883,6.35291 H 48.928486 c -16.952626,0 -29.153377,-3.05866 -36.60226,-9.17637 -7.1920306,-6.11761 -10.788044,-16.1175 -10.788044,-29.99972 0,-12.47047 3.4675819,-21.88212 10.402753,-28.23499 6.935168,-6.58819 17.081063,-9.88228 30.437683,-9.88228 h 6.552833 v -263.2914 h -6.549869 c -13.099761,0 -23.245656,-3.29398 -30.43768,-9.88227 C 5.008733,498.5895 1.5411477,488.94258 1.5411477,476.47212 c 0,-13.64696 3.7244616,-23.52921 11.1733293,-29.6468 7.448884,-6.35287 19.521208,-9.52931 36.216974,-9.52931 H 364.48162 c 15.66836,0 26.19951,2.23527 31.59351,6.70581 5.6509,4.23526 8.47636,12.82343 8.47636,25.76445 v 79.058 c 0,15.99984 -3.21078,27.52914 -9.63218,34.58791 -6.42145,6.82346 -16.82424,10.23515 -31.20829,10.23515 -14.89775,0 -25.68578,-3.52927 -32.3641,-10.58808 -6.42146,-7.05877 -9.6322,-18.47042 -9.6322,-34.23498 z M 739.90606,663.529 c 6.67833,3.7646 13.22821,10.5881 19.64965,20.47039 1.02753,1.41186 1.92639,2.58841 2.69703,3.52928 l 20.25074,29.362 42.55105,61.69588 h 4.23831 7.70576 c 14.89776,0 26.07106,3.17651 33.51994,9.52935 7.70576,6.35287 11.55863,15.88217 11.55863,28.58792 0,13.88223 -3.85278,23.88211 -11.55863,29.99972 -7.44888,6.11759 -19.9065,9.17637 -37.37284,9.17637 h -47.39031 c -17.46635,0 -31.0798,-6.9411 -40.84043,-20.82334 l -1.15573,-0.70594 -94.39535,-133.05749 c -3.59618,-5.1763 -7.70601,-9.05856 -12.32947,-11.64674 -4.62346,-2.82351 -9.50375,-4.23526 -14.64093,-4.23526 h -36.21696 v 93.17549 h 6.16457 c 13.87036,0 24.27311,3.29398 31.20826,9.88228 7.19201,6.35287 10.78803,15.76452 10.78803,28.23499 0,13.88222 -3.72455,23.88211 -11.17329,29.99972 -7.19204,6.11759 -19.52123,9.17637 -36.98757,9.17637 h -99.40408 c -17.20952,0 -29.53869,-3.05866 -36.98757,-9.17637 -7.44887,-6.11761 -11.17334,-16.1175 -11.17334,-29.99972 0,-12.47047 3.46768,-21.88212 10.40274,-28.23499 7.19205,-6.58819 17.5948,-9.88228 31.20828,-9.88228 h 6.54989 v -263.2914 h -6.54989 c -13.3566,0 -23.63094,-3.29398 -30.82299,-9.88227 -7.192,-6.82346 -10.78803,-16.47038 -10.78803,-28.94084 0,-13.64696 3.72455,-23.52921 11.17334,-29.6468 7.70573,-6.35287 20.03489,-9.52931 36.98757,-9.52931 h 177.61734 c 54.4539,0 95.67965,9.76462 123.67719,29.29382 27.99748,19.29393 41.99625,47.8819 41.99625,85.76384 0,26.35266 -7.83416,49.17595 -23.50251,68.46988 -15.41148,19.29392 -37.62968,33.52907 -66.65465,42.70545 z m -158.353,-150.35142 v 99.88134 h 52.01376 c 32.10723,0 54.5823,-3.76459 67.42524,-11.29398 12.8429,-7.76463 19.26435,-20.58804 19.26435,-38.4702 0,-17.64685 -5.90775,-30.35265 -17.7232,-38.11728 -11.55862,-7.99993 -30.30927,-11.99988 -56.25193,-11.99988 z m 494.47814,-5.64697 c -33.1348,0 -59.2058,12.23516 -78.21328,36.70547 -18.75062,24.47036 -28.12593,58.47002 -28.12593,101.999 0,43.52897 9.50374,77.64624 28.51125,102.35187 19.00756,24.70564 44.95016,37.05845 77.82796,37.05845 33.1348,0 59.2058,-12.23515 78.2133,-36.70552 19.0074,-24.70562 28.5113,-58.94057 28.5113,-102.7048 0,-43.52898 -9.5039,-77.52864 -28.5113,-101.999 -18.7506,-24.47031 -44.8217,-36.70547 -78.2133,-36.70547 z m 0,-81.88152 c 63.1872,0 115.2009,20.70569 156.0413,62.117 40.8405,41.41133 61.2608,94.23433 61.2608,158.46899 0,64.70523 -20.2919,117.64585 -60.8755,158.8219 -40.5836,41.17605 -92.7259,61.76406 -156.4266,61.76406 -62.9302,0 -114.94398,-20.70566 -156.04126,-62.11703 -41.09731,-41.64663 -61.64596,-94.4696 -61.64596,-158.46893 0,-64.46993 20.29182,-117.29293 60.8754,-158.46899 40.84041,-41.41131 93.11102,-62.117 156.81182,-62.117 z M 48.931451,1215.1768 V 951.88535 h -6.549869 c -13.870338,0 -24.401517,-3.29397 -31.593543,-9.88224 C 3.596013,935.41494 0,925.76797 0,913.06223 c 0,-13.64691 3.8528585,-23.52916 11.558615,-29.64675 7.705743,-6.35286 20.163357,-9.52931 37.372836,-9.52931 h 72.433979 22.73196 c 53.68335,0 92.98263,2.11781 117.89784,6.35287 24.91525,4.23526 46.10606,11.29399 63.5724,21.17626 31.0798,16.941 54.83919,41.17606 71.27812,72.70515 16.69577,31.29375 25.04365,67.52855 25.04365,108.70465 0,43.529 -9.50376,81.6464 -28.51123,114.3519 -18.75068,32.4701 -45.46389,57.0581 -80.13976,73.7639 -15.66835,7.5293 -34.03369,13.0587 -55.09602,16.5882 -21.06237,3.2938 -52.39905,4.9411 -94.01006,4.9411 h -42.7669 -72.433979 c -17.723196,0 -30.309237,-2.9412 -37.758121,-8.8236 C 3.7244444,1277.5292 0,1267.4115 0,1253.2941 c 0,-12.4705 3.5960216,-21.8821 10.788039,-28.2351 7.192026,-6.5882 17.723205,-9.8822 31.593543,-9.8822 z M 148.33551,950.4736 v 264.7032 h 21.96138 c 48.54618,0 84.37792,-10.8234 107.49512,-32.4702 23.11723,-21.8823 34.67585,-55.4113 34.67585,-100.5873 0,-44.4702 -11.81546,-77.6463 -35.44641,-99.52837 -23.37407,-21.88211 -58.69209,-32.82319 -105.95396,-32.82319 -6.16462,0 -10.91651,0.11586 -14.25565,0.35157 -3.08214,0 -5.90773,0.11586 -8.47633,0.35158 z m 519.80263,-16.43079 c -33.1347,0 -59.2058,12.23516 -78.2133,36.70551 -18.75062,24.47036 -28.12593,58.46998 -28.12593,101.99888 0,43.529 9.50374,77.6464 28.5112,102.352 19.0075,24.7056 44.95017,37.0584 77.82803,37.0584 33.13466,0 59.20576,-12.235 78.21327,-36.7055 19.00748,-24.7057 28.51124,-58.9405 28.51124,-102.7049 0,-43.5289 -9.50376,-77.52852 -28.51124,-101.99888 -18.75067,-24.47035 -44.82173,-36.70551 -78.21327,-36.70551 z m 0,-81.88152 c 63.18705,0 115.20084,20.7057 156.04125,62.117 40.84047,41.41138 61.26068,94.23431 61.26068,158.46891 0,64.7053 -20.29177,117.6459 -60.87536,158.8219 -40.58359,41.1761 -92.7258,61.7642 -156.42657,61.7642 -62.93023,0 -114.94399,-20.7058 -156.0413,-62.117 -41.0973,-41.6467 -61.64595,-94.4698 -61.64595,-158.4691 0,-64.4699 20.29181,-117.29285 60.87541,-158.46891 40.84041,-41.4113 93.11101,-62.117 156.81184,-62.117 z m 358.96166,99.72406 52.3991,67.41115 50.4726,-67.41115 c -12.5861,-0.94125 -22.0899,-4.70593 -28.5112,-11.29398 -6.4216,-6.58815 -9.6322,-15.76454 -9.6322,-27.52914 0,-13.88218 3.7245,-23.88208 11.1732,-29.99969 7.4489,-6.11758 19.7782,-9.17637 36.9876,-9.17637 h 86.3043 c 17.2095,0 29.5387,3.05866 36.9877,9.17637 7.7056,6.11761 11.5585,16.11751 11.5585,29.99969 0,12.94106 -3.7245,22.70566 -11.1733,29.29382 -7.192,6.35287 -18.1085,9.5293 -32.7494,9.5293 h -7.3205 -3.8527 l -96.3219,122.46935 113.6597,140.1163 h 9.6322 c 14.6409,0 25.5574,3.2939 32.7495,9.8821 7.4488,6.3529 11.1732,16 11.1732,28.941 0,13.8822 -3.8527,23.8821 -11.5586,29.9996 -7.4488,6.1176 -19.9066,9.1765 -37.3728,9.1765 h -103.2569 c -17.4664,0 -30.0524,-3.0588 -37.7582,-9.1765 -7.4489,-6.1175 -11.1733,-16.1174 -11.1733,-29.9996 0,-12.7058 3.339,-22.1175 10.0174,-28.2351 6.6784,-6.3529 17.0812,-9.8822 31.2083,-10.588 l -59.3343,-78.705 -60.8753,78.705 c 14.8979,0.2356 25.8143,3.6458 32.7493,10.235 7.1921,6.3531 10.7882,15.8823 10.7882,28.5881 0,13.8822 -3.8529,23.8821 -11.5587,29.9996 -7.4488,6.1176 -19.9064,9.1765 -37.3728,9.1765 h -89.77194 c -17.46635,0 -29.92396,-3.0588 -37.37284,-9.1765 -7.192,-6.1175 -10.78802,-16.1174 -10.78802,-29.9996 0,-12.941 3.59589,-22.5881 10.78802,-28.941 7.44888,-6.5881 18.49379,-9.8821 33.1347,-9.8821 h 9.6322 L 1026.3293,1082.1193 923.84288,951.88535 h -9.24687 c -14.89776,0 -26.0711,-3.17651 -33.51998,-9.5293 -7.19208,-6.58816 -10.78811,-26.43069 -10.78811,-39.37175 0,-13.88217 3.72455,-13.80415 11.1733,-19.92176 7.70575,-6.11758 20.29182,-9.17637 37.75816,-9.17637 h 98.63352 c 17.4664,0 29.924,3.05866 37.3728,9.17637 7.7059,6.11761 11.5586,16.11751 11.5586,29.99969 0,11.99989 -3.3389,21.29392 -10.0175,27.88207 -6.6782,6.58817 -16.5673,10.2352 -29.667,10.94105 z"
       id="text3037"
       style="font-weight:bold;font-size:18.0925px;line-height:10.9281px;font-family:Courier;-inkscape-font-specification:'Courier Bold';letter-spacing:-0.941713px;white-space:pre;opacity:1;stroke-width:41.7419;stroke-linecap:round;stroke-linejoin:round"
       aria-label="HET&#10;ERO&#10;DOX"
       sodipodi:nodetypes="ccccscscsscscsccscsssscscsccccscscsscscsccscscsssscscccccssscssssssssccccscscssssscscsccscscsscsscsccccccsssssssscsccccscscscccsscccssscccccccssscssssssssccccscscssssscscsccscscsscsscscscccccccscscssccccsccscscssssssccscscsscsccccscscscscssscscsssssscscsccssscscssccscccscscscscccscscscccscssscscsssssscscscccssssscscsccccscscsscscccccscsscscscccscscsscssc" />
  </g>
</svg>
